<svg width="32" height="32" viewBox="0 0 32 32" fill="none" xmlns="http://www.w3.org/2000/svg">
<path d="M21.6675 19.6675H20.6142L20.2408 19.3075C21.8408 17.4408 22.6675 14.8942 22.2142 12.1875C21.5875 8.48083 18.4942 5.52083 14.7608 5.0675C9.12083 4.37417 4.37417 9.12083 5.0675 14.7608C5.52083 18.4942 8.48083 21.5875 12.1875 22.2142C14.8942 22.6675 17.4408 21.8408 19.3075 20.2408L19.6675 20.6142V21.6675L25.3342 27.3342C25.8808 27.8808 26.7742 27.8808 27.3208 27.3342C27.8675 26.7875 27.8675 25.8942 27.3208 25.3475L21.6675 19.6675ZM13.6675 19.6675C10.3475 19.6675 7.6675 16.9875 7.6675 13.6675C7.6675 10.3475 10.3475 7.6675 13.6675 7.6675C16.9875 7.6675 19.6675 10.3475 19.6675 13.6675C19.6675 16.9875 16.9875 19.6675 13.6675 19.6675Z" fill="black"/>
</svg>
